<svg enable-background="new 0 0 429.171 128.512" height="128.51" viewBox="0 0 429.171 128.512" width="429.17" xmlns="http://www.w3.org/2000/svg" xmlns:xlink="http://www.w3.org/1999/xlink"><clipPath id="a"><path d="m139 26.521h290.17v101.99h-290.17z"/></clipPath><g fill="#0180c1"><path d="m141.28 27.945h3.872v17.392h-3.872z"/><path clip-path="url(#a)" d="m161.31 34.752-1.825-.151c.236.553.358 1.181.358 1.878 0 2.876-2.127 4.613-5.711 4.615-.847.069-1.212.269-1.212.644 0 .404.405.603 1.355.665 4.827.316 6.688 1.423 6.688 3.965 0 2.601-2.705 4.25-6.977 4.25-3.997 0-6.337-1.408-6.337-3.806 0-1.509.793-2.515 2.604-3.178-.649-.295-1.004-.779-1.004-1.409 0-.894.656-1.504 1.789-1.68-1.661-.713-2.56-2.097-2.56-4.032 0-2.86 2.152-4.628 5.706-4.628 1.291 0 2.389.224 3.264.647l4.027-.556.048.024zm-8.809 9.997c-.941.255-1.473.861-1.473 1.691 0 1.173 1.117 1.842 3.063 1.842 1.98 0 3.198-.693 3.198-1.822 0-1.196-1.105-1.596-4.788-1.711m3.873-8.236c0-1.618-.771-2.475-2.212-2.475-1.395 0-2.26.947-2.26 2.509 0 1.551.827 2.45 2.224 2.45 1.407 0 2.248-.919 2.248-2.484"/><path clip-path="url(#a)" d="m172.12 35.235c-3.156 0-4.665 1.143-4.665 4.177v5.925h-3.763v-10.306l-.271-2.609 3.28-.462.502 2.16h.071c1.055-1.385 2.413-2.235 4.611-2.235z"/><path clip-path="url(#a)" d="m185.06 39.573h-8.327c.234 2.295 1.473 3.269 3.656 3.269 1.622 0 2.924-.412 3.876-1.178h.048l.935 2.631c-1.063.614-3.081 1.283-5.328 1.283-4.789 0-6.833-2.91-6.833-6.616 0-4.182 2.591-7.077 6.853-7.077 3.724 0 5.47 2.208 5.47 5.712 0 .492-.035 1.123-.094 1.756zm-2.816-2.713c0-1.432-.85-2.473-2.452-2.473-1.611 0-2.768 1.063-3.039 3.276l5.467-.194c.024-.159.024-.29.024-.609"/><path clip-path="url(#a)" d="m188.16 32.725 3.763-.598v11.373c0 3.403-1.271 5.638-4 6.925l-2.272-2.461v-.048c1.673-.68 2.509-1.904 2.509-3.934zm4.282-4.271c0 1.104-.892 1.88-2.422 1.88-1.448 0-2.291-.669-2.291-1.773 0-1.08.856-1.856 2.421-1.856 1.448 0 2.292.67 2.292 1.749"/><path clip-path="url(#a)" d="m206.96 45.228-.011.059-3.169.291c-.365-.454-.653-1.036-.76-1.815h-.059c-.991 1.126-2.373 1.815-4.184 1.815-2.337 0-4.263-1.134-4.263-3.64 0-2.734 2.275-4.671 7.796-4.671h.656c-.114-1.852-1.253-2.601-3.24-2.601-1.416 0-2.537.387-3.758 1.188h-.049l-.957-2.697c1.673-.885 3.35-1.271 5.412-1.271 4.168 0 6.072 1.562 6.072 5.575v3.328c0 2.19.12 3.34.514 4.439m-3.985-5.474v-.426h-.737c-3.287 0-4.263 1.028-4.263 2.146 0 1.009.802 1.555 1.929 1.555 1.576 0 3.071-1.079 3.071-3.275"/><path clip-path="url(#a)" d="m229.83 33.74c0 4.215-2.973 6.432-8.088 6.432-.576 0-1.203-.029-1.884-.098v5.263h-3.871v-17.296c2.144-.287 3.514-.383 4.864-.383 6.502 0 8.979 2.229 8.979 6.082m-3.921.166c0-2.469-1.524-3.489-4.837-3.489-.339 0-.753.018-1.214.052v6.847c.644.077 1.222.108 1.686.108 2.967 0 4.365-1.15 4.365-3.518"/><path clip-path="url(#a)" d="m240.75 35.235c-3.156 0-4.665 1.143-4.665 4.177v5.925h-3.763v-10.306l-.271-2.609 3.28-.462.502 2.16h.071c1.055-1.385 2.413-2.235 4.611-2.235z"/><path clip-path="url(#a)" d="m253.68 39.573h-8.327c.234 2.295 1.473 3.269 3.656 3.269 1.622 0 2.924-.412 3.876-1.178h.048l.935 2.631c-1.063.614-3.081 1.283-5.328 1.283-4.789 0-6.833-2.91-6.833-6.616 0-4.182 2.591-7.077 6.853-7.077 3.724 0 5.47 2.208 5.47 5.712 0 .492-.035 1.123-.094 1.756zm-2.816-2.713c0-1.432-.85-2.473-2.452-2.473-1.611 0-2.768 1.063-3.039 3.276l5.467-.194c.024-.159.024-.29.024-.609"/><path clip-path="url(#a)" d="m265.96 35.783h-.072c-1.092-.853-2.368-1.35-3.689-1.35-1.367 0-2.125.542-2.125 1.342 0 2.388 7.05.947 7.05 5.705 0 2.782-2.404 4.074-5.831 4.074-2.147 0-4.111-.517-5.432-1.338l.947-2.597h.06c.993.87 2.446 1.41 4.078 1.41 1.514 0 2.375-.468 2.375-1.368 0-2.487-6.946-1.117-6.946-5.764 0-2.506 2.032-4.011 5.633-4.011 1.936 0 3.472.451 4.888 1.266z"/><path clip-path="url(#a)" d="m282.82 38.278c0 4.811-2.703 7.3-7.319 7.3-2.261 0-4.447-.589-5.765-1.51v-16.821l3.729-.612v7.054h.085c.839-1.074 2.211-1.804 4.037-1.804 3.238 0 5.233 2.278 5.233 6.393m-3.862.366c0-2.632-.985-3.855-2.592-3.855-1.519 0-2.901 1.113-2.901 3.768v3.565c.402.378 1.312.564 2.175.564 2.233 0 3.318-1.297 3.318-4.042"/><path clip-path="url(#a)" d="m285.1 28.561c0-1.08.881-1.857 2.422-1.857 1.448 0 2.292.67 2.292 1.75 0 1.103-.905 1.879-2.409 1.879-1.473 0-2.305-.669-2.305-1.772m.421 4.164 3.763-.599v13.21h-3.763z"/><path clip-path="url(#a)" d="m301.89 44.574c-.83.54-2.142 1.004-3.707 1.004-2.966 0-4.271-1.642-4.271-4.392v-5.938h-2.405v-2.697l2.408-.215.203-2.964 3.466-.599v3.702l3.935-.214-.176 2.987h-3.759v5.463c0 1.267.51 1.838 1.541 1.838.536 0 1.167-.171 1.809-.584h.049z"/><path clip-path="url(#a)" d="m315.1 39.573h-8.326c.233 2.295 1.473 3.269 3.654 3.269 1.623 0 2.926-.412 3.876-1.178h.049l.936 2.631c-1.063.614-3.082 1.283-5.328 1.283-4.789 0-6.833-2.91-6.833-6.616 0-4.182 2.59-7.077 6.853-7.077 3.725 0 5.471 2.208 5.471 5.712 0 .492-.036 1.123-.095 1.756zm-2.817-2.713c0-1.432-.85-2.473-2.452-2.473-1.611 0-2.767 1.063-3.038 3.276l5.467-.194c.023-.159.023-.29.023-.609"/><path clip-path="url(#a)" d="m326.65 35.235c-3.156 0-4.666 1.143-4.666 4.177v5.925h-3.763v-10.306l-.271-2.609 3.279-.462.502 2.16h.071c1.056-1.385 2.414-2.235 4.611-2.235z"/><path clip-path="url(#a)" d="m328.27 28.561c0-1.08.881-1.857 2.422-1.857 1.448 0 2.292.67 2.292 1.75 0 1.103-.905 1.879-2.409 1.879-1.473 0-2.305-.669-2.305-1.772m.421 4.164 3.763-.599v13.21h-3.763z"/><path clip-path="url(#a)" d="m347.48 45.228-.012.059-3.169.291c-.365-.454-.652-1.036-.76-1.815h-.059c-.991 1.126-2.373 1.815-4.184 1.815-2.338 0-4.264-1.134-4.264-3.64 0-2.734 2.275-4.671 7.796-4.671h.655c-.113-1.852-1.252-2.601-3.238-2.601-1.417 0-2.538.387-3.759 1.188h-.049l-.957-2.697c1.673-.885 3.35-1.271 5.412-1.271 4.167 0 6.071 1.562 6.071 5.575v3.328c.003 2.19.124 3.34.517 4.439m-3.985-5.474v-.426h-.737c-3.287 0-4.263 1.028-4.263 2.146 0 1.009.802 1.555 1.929 1.555 1.577 0 3.071-1.079 3.071-3.275"/><path clip-path="url(#a)" d="m363.08 36.806v8.53h-3.763v-7.704c0-1.819-.689-2.718-2.141-2.718-1.534 0-3.052.994-3.052 3.712v6.71h-3.763v-10.305l-.271-2.61 3.279-.462.514 1.913h.047c1.072-1.199 2.676-1.987 4.606-1.987 2.889 0 4.544 1.746 4.544 4.921"/><path clip-path="url(#a)" d="m377.98 45.228-.012.059-3.169.291c-.365-.454-.652-1.036-.76-1.815h-.059c-.991 1.126-2.373 1.815-4.184 1.815-2.338 0-4.264-1.134-4.264-3.64 0-2.734 2.275-4.671 7.796-4.671h.655c-.113-1.852-1.252-2.601-3.238-2.601-1.417 0-2.538.387-3.759 1.188h-.049l-.957-2.697c1.673-.885 3.35-1.271 5.412-1.271 4.167 0 6.071 1.562 6.071 5.575v3.328c.003 2.19.124 3.34.517 4.439m-3.985-5.474v-.426h-.737c-3.287 0-4.263 1.028-4.263 2.146 0 1.009.802 1.555 1.929 1.555 1.577 0 3.071-1.079 3.071-3.275"/><path clip-path="url(#a)" d="m399.06 40.697c0 2.331.119 3.373.525 4.53l-.012.06-3.354.291c-.28-.359-.646-1.01-.807-1.928h-.086c-.941 1.271-2.447 1.928-4.147 1.928-3.16 0-5.193-2.327-5.193-6.396 0-4.662 2.687-7.296 6.947-7.296.861 0 1.634.099 2.372.307l-.01-5.118 3.763-.554zm-3.736-1.332-.009-3.911c-.511-.395-1.267-.7-2.243-.7-1.984 0-3.259 1.355-3.259 4.15 0 2.471.979 3.792 2.591 3.792 1.469 0 2.81-1.025 2.92-3.331"/><path clip-path="url(#a)" d="m414.16 45.228-.012.059-3.169.291c-.365-.454-.652-1.036-.76-1.815h-.059c-.991 1.126-2.373 1.815-4.184 1.815-2.338 0-4.264-1.134-4.264-3.64 0-2.734 2.275-4.671 7.796-4.671h.655c-.113-1.852-1.252-2.601-3.238-2.601-1.417 0-2.538.387-3.759 1.188h-.049l-.957-2.697c1.673-.885 3.35-1.271 5.412-1.271 4.167 0 6.071 1.562 6.071 5.575v3.328c.003 2.19.124 3.34.517 4.439m-3.985-5.474v-.426h-.737c-3.287 0-4.263 1.028-4.263 2.146 0 1.009.802 1.555 1.929 1.555 1.577 0 3.071-1.079 3.071-3.275"/><path clip-path="url(#a)" d="m426.18 35.783h-.072c-1.092-.853-2.368-1.35-3.689-1.35-1.366 0-2.125.542-2.125 1.342 0 2.388 7.05.947 7.05 5.705 0 2.782-2.403 4.074-5.83 4.074-2.147 0-4.111-.517-5.433-1.338l.947-2.597h.06c.994.87 2.446 1.41 4.078 1.41 1.514 0 2.375-.468 2.375-1.368 0-2.487-6.946-1.117-6.946-5.764 0-2.506 2.032-4.011 5.634-4.011 1.936 0 3.472.451 4.887 1.266z"/><path clip-path="url(#a)" d="m182.86 85.465v22.497c-3.968 2.626-9.869 4.721-17.835 4.721-18.662 0-26.023-11.418-26.023-26.524 0-16.375 8.689-27.66 26.48-27.66 6.668 0 12.023 1.594 15.77 3.614l-2.684 7.878h-.148c-3.334-2.507-7.789-3.939-12.982-3.939-11.669 0-17.555 7.524-17.555 20.167 0 12.141 5.473 19.03 17.068 19.03 3.231 0 6.622-.556 9.998-1.896l-.188-17.888z"/><path clip-path="url(#a)" d="m235.79 111.8v.147l-9.795.59c-5.625-7.366-10.047-14.184-13.641-21.096h-9.048v20.506h-8.571v-52.634c5.267-.605 9.161-.87 12.997-.87 19.753 0 26.273 7.095 26.273 16.286 0 8.017-4.925 13.797-12.906 15.873 4.032 7.119 8.981 14.143 14.691 21.198m-32.484-26.879h10.238c7.568 0 11.758-3.378 11.758-9.751 0-6.727-4.721-10.031-17.57-10.031-1.319 0-2.775.048-4.426.156z"/><path clip-path="url(#a)" d="m275.03 97.847-21.515-.31-5.41 14.408h-8.63l20.579-52.71h8.719l20.58 52.71h-8.969zm-19.264-6.765 16.977-.033-5.519-14.921c-1.2-3.239-2.089-6.032-2.804-8.747l-.383-.076c-.704 2.741-1.568 5.556-2.773 8.838z"/><path clip-path="url(#a)" d="m327.07 121.26c0 4.475-3.429 7.255-10.195 7.255-2.995 0-5.539-.531-7.496-1.947l1.473-4.559h.147c1.261 1.239 2.918 1.771 4.998 1.771 2.825 0 4.219-1.028 4.219-2.88 0-1.925-1.569-3.36-7.113-3.36l-.298-.368 1.635-4.67c-13.798-1.526-20.954-12.342-20.954-26.723 0-15.548 8.379-27.277 25.418-27.277 6.668 0 11.521 1.711 14.988 3.703l-2.655 7.789h-.147c-3.585-2.802-7.967-3.879-12.186-3.879-10.901 0-16.537 7.73-16.537 19.827 0 11.949 5.325 19.132 16.375 19.132 4.957 0 9.367-1.4 13.129-4.351h.074l2.508 7.436c-3.619 2.276-8.458 4.095-14.371 4.462l-.601 1.94c5.555.446 7.589 3.186 7.589 6.699"/><path clip-path="url(#a)" d="m373.65 97.847-21.515-.31-5.41 14.408h-8.63l20.579-52.71h8.719l20.579 52.71h-8.968zm-19.263-6.765 16.977-.033-5.519-14.921c-1.2-3.239-2.089-6.032-2.804-8.747l-.384-.076c-.703 2.741-1.568 5.556-2.772 8.838z"/><path clip-path="url(#a)" d="m425.14 69.769c-4.677-3.068-8.408-3.998-12.466-3.998-6.786 0-10.326 2.538-10.282 6.846.133 11.536 26.775 6.667 26.775 24.665 0 9.545-7.553 15.328-19.605 15.328-6.462 0-12.259-1.638-17.245-4.677l2.419-7.715.147.015c4.779 3.599 9.014 5.134 14.708 5.134 7.081 0 10.755-2.479 10.738-7.214-.058-12.51-26.627-6.934-26.627-25.094 0-9.043 6.609-14.502 19.046-14.502 5.089 0 9.618.9 14.959 3.689l-2.421 7.538z"/><path d="m30.682 123.01 1.094-1.351c.684-.853 1.392-1.671 2.091-2.484v-.01c2.065-2.396 4.162-4.831 5.209-7.563v-.018c.834-2.129.745-4.729.649-7.325-.05-1.518-.107-3.042 0-4.525v-.008.008-.008l1.106-24.041c.197-3.602.394-7.059-.996-10.384-1.336-3.216-4.04-9.534-8.533-10.425-.581-.095-1.291 1.198-2.309 5.198l.011-.015c-.57 2.299-.474 4.852-.38 7.373l.073 17.909h-4.885l-.072-17.774c-.101-2.769-.209-5.578.497-8.418l.008-.018c1.817-7.155 4.605-9.143 8.121-8.448h.01c6.786 1.353 9.981 8.164 12.042 13.137 1.74 4.162 1.526 8.039 1.301 12.065l-1.107 24.104v.007c-.098 1.349-.05 2.743 0 4.126.106 2.991.215 5.981-.917 8.862v-.018c-1.326 3.461-3.647 6.155-5.933 8.809v-.008l-1.049 1.243zm-30.682 0c.02-.026.178-.44.196-.472.502-.989 1.138-1.911 1.763-2.827v-.015c1.031-1.518 2.077-3.043 2.155-4.601l1.229-35.624c.936-13.448 1.679-23.996 11.25-37.17.003-.006.011-.018.019-.027l-.019.027c.009-.006.014-.018.019-.027l25.583-37.706c5.442-6.811 12.775-5.575 15.928.854 1.408 2.879-.224 7.548-1.318 9.116l-21.575 33.911-4.284-1.316 4.899-8.438v.01l16.629-25.283c5.021-5.926-1-13.328-5.766-7.195l-25.972 38.347-.021.022c-8.887 12.22-9.592 22.29-10.49 35.132l-1.231 35.552c-.148 3.118-2.201 5.204-3.624 7.735l-5.37-.005zm46.68-116.76c-.01.013-.017.021-.029.034zm6.891 37.656-8.504 12.484c-.246.357-1.162-.631-.832-1.108l10.084-14.558c2.018-2.917-.456-6.379-1.47-4.821l-9.794 15.012c-.703 1.077-1.628.266-1.403-.082l13.183-20.523c1.353-2.108-.619-9.444-2.345-6.756l-15.665 24.424c-.312.485-1.595.468-1.242-.092l-.353.56-4.284-1.316-.481.82c5.477 1.938 9.938 3.889 14.246 14.435l10.05-15.152c1.124-1.69.765-6.191-1.19-3.327m34.11 79.101s-1.087-1.351-1.092-1.351c-.683-.853-1.393-1.671-2.09-2.484v-.01c-2.064-2.396-4.163-4.831-5.206-7.563v-.018c-.839-2.129-.746-4.729-.654-7.325.051-1.518.107-3.042 0-4.525v-.008.008-.008l-1.106-24.041c-.197-3.602-.39-7.059.996-10.384 1.337-3.216 4.038-9.534 8.53-10.425.585-.095 1.296 1.198 2.309 5.198l-.01-.015c.571 2.299.476 4.852.383 7.373l-.075 17.909h4.886l.075-17.773c.1-2.769.21-5.578-.495-8.418l-.01-.018c-1.82-7.155-4.607-9.143-8.117-8.448h-.016c-6.786 1.353-9.976 8.164-12.04 13.137-1.74 4.162-1.521 8.039-1.3 12.065l1.106 24.104v.007c.097 1.349.044 2.743-.003 4.126-.104 2.991-.213 5.981.919 8.862v-.018c1.323 3.461 3.641 6.155 5.933 8.809v-.008l1.047 1.243h6.03zm30.686 0c-.02-.026-.179-.44-.196-.472-.506-.989-1.138-1.911-1.761-2.827v-.015c-1.035-1.518-2.08-3.043-2.154-4.601l-1.234-35.624c-.934-13.448-1.678-23.996-11.244-37.17-.008-.006-.015-.018-.024-.027l.024.027c-.013-.006-.018-.018-.024-.027l-25.581-37.706c-5.445-6.811-12.778-5.575-15.929.854-1.411 2.879.217 7.548 1.318 9.116l21.573 33.911 4.284-1.316-4.902-8.438v.01l-16.621-25.284c-5.022-5.926.995-13.328 5.76-7.195l25.977 38.348.019.022c8.884 12.22 9.594 22.29 10.488 35.132l1.229 35.552c.15 3.118 2.202 5.204 3.628 7.735zm-46.681-116.76c.01.013.015.021.026.034zm-6.893 37.656 8.508 12.484c.243.357 1.16-.631.828-1.108l-10.082-14.557c-2.023-2.917.455-6.379 1.473-4.821l9.793 15.012c.7 1.077 1.625.266 1.402-.082l-13.181-20.523c-1.357-2.108.613-9.444 2.34-6.756l15.667 24.423c.309.485 1.593.468 1.237-.092l.356.56 4.284-1.316.482.82c-5.477 1.938-9.938 3.889-14.245 14.435l-10.052-15.153c-1.123-1.689-.761-6.19 1.19-3.326"/></g></svg>